<svg width="239" height="138.78" viewBox="20.5 19.5 240 139.78" fill="none" xmlns="http://www.w3.org/2000/svg">
<g filter="url(#filter0_d_2096_571)">
<path d="M113.107 158.78C110.574 153.595 107.132 143.676 106.861 133.67C117.532 135.186 128.821 136 140.501 136C206.5 136 260.003 110.033 260.003 78C260.003 45.9675 206.5 20 140.501 20C74.5024 20.0001 21.0001 45.9676 21 78C21 102.511 52.3279 123.472 96.6104 131.963C99.4997 138.879 105.516 150.813 113.107 158.78Z" fill="#F9FBFE"/>
<path d="M113.107 158.78L113.557 158.561L112.745 159.125L113.107 158.78ZM106.861 133.67L106.362 133.683L106.346 133.092L106.932 133.175L106.861 133.67ZM140.501 136L140.501 136.5L140.501 136.5L140.501 136ZM260.003 78L260.503 78V78H260.003ZM140.501 20L140.501 19.5H140.501V20ZM21 78L20.5 78L20.5 78L21 78ZM96.6104 131.963L96.7045 131.472L96.9682 131.522L97.0717 131.77L96.6104 131.963ZM113.107 158.78L112.658 159C110.102 153.769 106.634 143.78 106.362 133.683L106.861 133.67L107.361 133.656C107.629 143.573 111.045 153.421 113.557 158.561L113.107 158.78ZM106.861 133.67L106.932 133.175C117.578 134.688 128.844 135.5 140.501 135.5L140.501 136L140.501 136.5C128.798 136.5 117.485 135.685 106.791 134.165L106.861 133.67ZM140.501 136V135.5C173.442 135.5 203.239 129.019 224.783 118.562C246.361 108.089 259.503 93.717 259.503 78H260.003H260.503C260.503 94.3155 246.893 108.943 225.22 119.462C203.512 129.998 173.559 136.5 140.501 136.5V136ZM260.003 78L259.503 78C259.503 62.283 246.361 47.9106 224.783 37.4376C203.239 26.9814 173.442 20.5 140.501 20.5V20V19.5C173.559 19.5 203.512 26.0024 225.22 36.538C246.893 47.057 260.503 61.6845 260.503 78L260.003 78ZM140.501 20L140.501 20.5C107.56 20.5 77.7631 26.9814 56.2194 37.4377C34.6414 47.9106 21.5001 62.283 21.5 78L21 78L20.5 78C20.5001 61.6845 34.1099 47.057 55.7828 36.5381C77.4899 26.0025 107.443 19.5 140.501 19.5L140.501 20ZM21 78H21.5C21.5 90.025 29.1853 101.261 42.4862 110.579C55.7794 119.893 74.6099 127.235 96.7045 131.472L96.6104 131.963L96.5162 132.454C74.3283 128.199 55.3537 120.816 41.9123 111.398C28.4786 101.987 20.5 90.4864 20.5 78H21ZM96.6104 131.963L97.0717 131.77C99.953 138.667 105.941 150.535 113.469 158.435L113.107 158.78L112.745 159.125C105.091 151.092 99.0463 139.091 96.149 132.156L96.6104 131.963Z" fill="black"/>
</g>
<defs>
<filter id="filter0_d_2096_571" x="0.5" y="0.5" width="280.003" height="179.625" filterUnits="userSpaceOnUse" color-interpolation-filters="sRGB">
<feFlood flood-opacity="0" result="BackgroundImageFix"/>
<feColorMatrix in="SourceAlpha" type="matrix" values="0 0 0 0 0 0 0 0 0 0 0 0 0 0 0 0 0 0 127 0" result="hardAlpha"/>
<feOffset dy="1"/>
<feGaussianBlur stdDeviation="10"/>
<feComposite in2="hardAlpha" operator="out"/>
<feColorMatrix type="matrix" values="0 0 0 0 0 0 0 0 0 0 0 0 0 0 0 0 0 0 0.1 0"/>
<feBlend mode="normal" in2="BackgroundImageFix" result="effect1_dropShadow_2096_571"/>
<feBlend mode="normal" in="SourceGraphic" in2="effect1_dropShadow_2096_571" result="shape"/>
</filter>
</defs>
</svg>
