<svg width="157" height="20" viewBox="0 0 157 20" fill="none" xmlns="http://www.w3.org/2000/svg">
<g clip-path="url(#clip0_2062_203)">
<path d="M156.673 10H88V10.432H156.673V10Z" fill="#E6D9A4"/>
<path d="M68.6733 9.78369H0V10.2157H68.6733V9.78369Z" fill="#E6D9A4"/>
<path d="M70.7306 12.2641C69.4765 12.2641 68.4561 11.2481 68.4561 9.99949C68.4561 8.75088 69.4765 7.73486 70.7306 7.73486C72.2956 7.73486 73.4166 9.81011 73.4636 9.89868L73.5171 9.99949L73.4636 10.1003C73.4166 10.1889 72.2949 12.2634 70.7306 12.2634V12.2641ZM70.7306 8.16691C69.7159 8.16691 68.89 8.98923 68.89 9.99949C68.89 11.0098 69.7159 11.8321 70.7306 11.8321C71.8588 11.8321 72.7867 10.3977 73.0225 9.99949C72.7867 9.60129 71.8588 8.16691 70.7306 8.16691Z" fill="#E6D9A4"/>
<path d="M86.269 12.2639C84.7047 12.2639 83.583 10.1886 83.5359 10.1008L83.4824 9.99998L83.5359 9.89917C83.583 9.8106 84.7047 7.73535 86.269 7.73535C87.523 7.73535 88.5435 8.75137 88.5435 9.99998C88.5435 11.2486 87.523 12.2646 86.269 12.2646V12.2639ZM83.9771 9.99926C84.2129 10.3975 85.1408 11.8318 86.269 11.8318C87.2837 11.8318 88.1096 11.0095 88.1096 9.99926C88.1096 8.989 87.2837 8.16667 86.269 8.16667C85.1408 8.16667 84.2129 9.60106 83.9771 9.99926Z" fill="#E6D9A4"/>
<path d="M70.7306 12.2641C69.4765 12.2641 68.4561 11.2481 68.4561 9.99949C68.4561 8.75088 69.4765 7.73486 70.7306 7.73486C72.2956 7.73486 73.4166 9.81011 73.4636 9.89868L73.5171 9.99949L73.4636 10.1003C73.4166 10.1889 72.2949 12.2634 70.7306 12.2634V12.2641ZM70.7306 8.16691C69.7159 8.16691 68.89 8.98923 68.89 9.99949C68.89 11.0098 69.7159 11.8321 70.7306 11.8321C71.8588 11.8321 72.7867 10.3977 73.0225 9.99949C72.7867 9.60129 71.8588 8.16691 70.7306 8.16691Z" fill="#E6D9A4"/>
<path d="M86.269 12.2639C84.7047 12.2639 83.583 10.1886 83.5359 10.1008L83.4824 9.99998L83.5359 9.89917C83.583 9.8106 84.7047 7.73535 86.269 7.73535C87.523 7.73535 88.5435 8.75137 88.5435 9.99998C88.5435 11.2486 87.523 12.2646 86.269 12.2646V12.2639ZM83.9771 9.99926C84.2129 10.3975 85.1408 11.8318 86.269 11.8318C87.2837 11.8318 88.1096 11.0095 88.1096 9.99926C88.1096 8.989 87.2837 8.16667 86.269 8.16667C85.1408 8.16667 84.2129 9.60106 83.9771 9.99926Z" fill="#E6D9A4"/>
<path d="M78.5001 5.03955L78.3989 4.98627C78.3099 4.93946 76.2256 3.82263 76.2256 2.26511C76.2256 1.01651 77.2461 0.000488281 78.5001 0.000488281C79.7542 0.000488281 80.7746 1.01651 80.7746 2.26511C80.7746 3.82335 78.6903 4.93946 78.6014 4.98627L78.5001 5.03955ZM78.5001 0.431811C77.4854 0.431811 76.6595 1.25413 76.6595 2.26439C76.6595 3.38771 78.1002 4.31156 78.5001 4.5463C78.9001 4.31156 80.3407 3.38771 80.3407 2.26439C80.3407 1.25413 79.5148 0.431811 78.5001 0.431811Z" fill="#E6D9A4"/>
<path d="M78.5001 20C77.2461 20 76.2256 18.984 76.2256 17.7354C76.2256 16.1771 78.3099 15.061 78.3989 15.0142L78.5001 14.9609L78.6014 15.0142C78.6903 15.061 80.7746 16.1779 80.7746 17.7354C80.7746 18.984 79.7542 20 78.5001 20ZM78.5001 15.4535C78.1002 15.6882 76.6595 16.6121 76.6595 17.7354C76.6595 18.7456 77.4854 19.568 78.5001 19.568C79.5148 19.568 80.3407 18.7456 80.3407 17.7354C80.3407 16.6121 78.9001 15.6882 78.5001 15.4535Z" fill="#E6D9A4"/>
<path d="M78.5001 15.421C78.4444 15.421 78.3887 15.4002 78.3467 15.3577L73.1193 10.153C73.0788 10.1127 73.0557 10.0572 73.0557 10.0003C73.0557 9.94346 73.0788 9.88801 73.1193 9.84769L78.3467 4.64301C78.4277 4.56236 78.5724 4.56236 78.6534 4.64301L83.8808 9.84769C83.9213 9.88801 83.9444 9.94346 83.9444 10.0003C83.9444 10.0572 83.9213 10.1127 83.8808 10.153L78.6534 15.3577C78.6107 15.4002 78.5557 15.421 78.5001 15.421ZM73.5793 9.99962L78.5001 14.899L83.4208 9.99962L78.5001 5.10025L73.5793 9.99962Z" fill="#E6D9A4"/>
<path d="M80.2421 13.6854C80.1864 13.6854 80.1307 13.6645 80.0887 13.622L74.8613 8.41732C74.7767 8.33308 74.7767 8.19626 74.8613 8.11201C74.9459 8.02777 75.0833 8.02777 75.168 8.11201L80.3954 13.3167C80.48 13.4009 80.48 13.5378 80.3954 13.622C80.3527 13.6645 80.2978 13.6854 80.2421 13.6854Z" fill="#E6D9A4"/>
<path d="M81.9852 11.951C81.9295 11.951 81.8739 11.9301 81.8319 11.8876L76.6045 6.68295C76.5199 6.5987 76.5199 6.46189 76.6045 6.37764C76.6891 6.29339 76.8265 6.29339 76.9111 6.37764L82.1386 11.5823C82.2232 11.6666 82.2232 11.8034 82.1386 11.8876C82.0959 11.9301 82.0409 11.951 81.9852 11.951Z" fill="#E6D9A4"/>
<path d="M75.0146 11.951C74.9589 11.951 74.9033 11.9301 74.8613 11.8876C74.7767 11.8034 74.7767 11.6666 74.8613 11.5823L80.0887 6.37764C80.1734 6.29339 80.3108 6.29339 80.3954 6.37764C80.48 6.46189 80.48 6.5987 80.3954 6.68295L75.168 11.8876C75.1253 11.9301 75.0703 11.951 75.0146 11.951Z" fill="#E6D9A4"/>
<path d="M76.7568 13.6854C76.7011 13.6854 76.6454 13.6645 76.6035 13.622C76.5189 13.5378 76.5189 13.4009 76.6035 13.3167L81.8309 8.11201C81.9155 8.02777 82.053 8.02777 82.1376 8.11201C82.2222 8.19626 82.2222 8.33308 82.1376 8.41732L76.9101 13.622C76.8675 13.6645 76.8125 13.6854 76.7568 13.6854Z" fill="#E6D9A4"/>
<path d="M75.011 8.48101C74.9553 8.48101 74.8996 8.46012 74.8577 8.41764L74.256 7.81854C73.6868 7.25184 73.6868 6.33015 74.256 5.76345C74.5315 5.48911 74.8982 5.33789 75.288 5.33789C75.6778 5.33789 76.0445 5.48911 76.3201 5.76345L76.9218 6.36255C77.0064 6.4468 77.0064 6.58362 76.9218 6.66786C76.8371 6.75211 76.6997 6.75211 76.6151 6.66786L76.0134 6.06876C75.8196 5.87578 75.5621 5.76993 75.288 5.76993C75.0139 5.76993 74.7564 5.8765 74.5626 6.06876C74.1627 6.46696 74.1627 7.11503 74.5626 7.51323L75.1643 8.11233C75.249 8.19658 75.249 8.33339 75.1643 8.41764C75.1217 8.46012 75.0667 8.48101 75.011 8.48101Z" fill="#E6D9A4"/>
<path d="M81.9937 8.48101C81.9381 8.48101 81.8824 8.46012 81.8404 8.41764C81.7558 8.33339 81.7558 8.19658 81.8404 8.11233L82.4421 7.51323C82.636 7.32025 82.7423 7.0639 82.7423 6.791C82.7423 6.51809 82.6352 6.26174 82.4421 6.06876C82.2483 5.87578 81.9909 5.76993 81.7168 5.76993C81.4427 5.76993 81.1852 5.8765 80.9914 6.06876L80.3896 6.66786C80.305 6.75211 80.1676 6.75211 80.083 6.66786C79.9984 6.58362 79.9984 6.4468 80.083 6.36255L80.6847 5.76345C80.9603 5.48911 81.3269 5.33789 81.7168 5.33789C82.1066 5.33789 82.4732 5.48911 82.7488 5.76345C83.0243 6.0378 83.1762 6.40288 83.1762 6.791C83.1762 7.17911 83.0243 7.54419 82.7488 7.81854L82.1471 8.41764C82.1044 8.46012 82.0494 8.48101 81.9937 8.48101Z" fill="#E6D9A4"/>
<path d="M75.288 14.662C74.8982 14.662 74.5315 14.5108 74.256 14.2364C73.6868 13.6697 73.6868 12.748 74.256 12.1813L74.8577 11.5822C74.9423 11.498 75.0797 11.498 75.1643 11.5822C75.249 11.6665 75.249 11.8033 75.1643 11.8875L74.5626 12.4866C74.1627 12.8848 74.1627 13.5329 74.5626 13.9311C74.7564 14.1241 75.0139 14.2299 75.288 14.2299C75.5621 14.2299 75.8196 14.1234 76.0134 13.9311L76.6151 13.332C76.6997 13.2478 76.8371 13.2478 76.9218 13.332C77.0064 13.4163 77.0064 13.5531 76.9218 13.6373L76.3201 14.2364C76.0445 14.5108 75.6778 14.662 75.288 14.662Z" fill="#E6D9A4"/>
<path d="M81.7177 14.662C81.3279 14.662 80.9612 14.5108 80.6857 14.2364L80.084 13.6373C79.9994 13.5531 79.9994 13.4163 80.084 13.332C80.1686 13.2478 80.306 13.2478 80.3906 13.332L80.9923 13.9311C81.1862 14.1241 81.4436 14.2299 81.7177 14.2299C81.9918 14.2299 82.2493 14.1234 82.4431 13.9311C82.6369 13.7381 82.7432 13.4818 82.7432 13.2089C82.7432 12.936 82.6362 12.6796 82.4431 12.4866L81.8414 11.8875C81.7568 11.8033 81.7568 11.6665 81.8414 11.5822C81.926 11.498 82.0634 11.498 82.148 11.5822L82.7498 12.1813C83.0253 12.4557 83.1772 12.8208 83.1772 13.2089C83.1772 13.597 83.0253 13.9621 82.7498 14.2364C82.4742 14.5108 82.1075 14.662 81.7177 14.662Z" fill="#E6D9A4"/>
</g>
<defs>
<clipPath id="clip0_2062_203">
<rect width="157" height="20" fill="white"/>
</clipPath>
</defs>
</svg>
